<?xml version="1.0" standalone="no"?>
<!DOCTYPE svg PUBLIC "-//W3C//DTD SVG 20010904//EN"
 "http://www.w3.org/TR/2001/REC-SVG-20010904/DTD/svg10.dtd">
<svg version="1.0" xmlns="http://www.w3.org/2000/svg"
 width="600.000000pt" height="600.000000pt" viewBox="0 0 600.000000 600.000000"
 preserveAspectRatio="xMidYMid meet">
<metadata>
Created by potrace 1.16, written by Peter Selinger 2001-2019
</metadata>
<g transform="translate(0.000000,600.000000) scale(0.100000,-0.100000)"
fill="#000000" stroke="none">
<path d="M2304 5320 c-33 -3 -65 -10 -71 -13 -6 -4 -37 -11 -70 -16 -32 -5
-71 -13 -88 -19 -16 -5 -68 -22 -115 -37 -47 -16 -89 -32 -94 -36 -6 -5 -16
-9 -24 -9 -21 0 -240 -110 -307 -154 -269 -176 -544 -461 -664 -686 -13 -25
-29 -52 -35 -60 -55 -73 -156 -336 -200 -520 -55 -225 -61 -420 -46 -1475 8
-551 10 -582 54 -780 52 -238 193 -539 345 -739 233 -305 473 -488 856 -652
85 -37 250 -84 329 -95 39 -5 74 -13 80 -19 7 -7 284 -10 795 -10 l786 0 3
128 c3 148 -17 232 -80 342 -4 8 -11 22 -15 30 -23 53 -133 155 -213 198 -109
58 -78 56 -685 63 -651 7 -636 6 -821 90 -23 11 -44 19 -47 19 -3 0 -34 17
-69 37 -243 142 -432 370 -500 603 -27 89 -56 212 -62 253 -10 72 -60 67 628
67 470 0 625 -3 634 -12 7 -7 12 -26 12 -44 0 -36 56 -154 111 -234 82 -118
226 -212 405 -264 l92 -27 343 2 c189 0 427 2 529 2 102 1 325 -2 495 -7 189
-5 361 -4 440 2 122 9 136 12 215 50 244 116 390 399 335 650 -26 119 -78 214
-165 299 -89 88 -176 129 -322 156 -101 17 -298 -32 -356 -89 -7 -8 -17 -14
-21 -14 -12 0 -105 -92 -138 -135 -34 -45 -53 -84 -82 -170 -19 -54 -21 -83
-21 -335 0 -155 -4 -282 -10 -290 -8 -13 -57 -15 -321 -18 -196 -2 -316 1
-322 7 -6 6 -9 93 -8 223 3 265 -10 355 -68 478 -50 107 -147 216 -241 268
-60 34 -85 44 -180 74 -23 7 -236 14 -600 18 -465 6 -576 10 -625 23 -216 56
-341 125 -477 264 -142 145 -199 237 -251 408 -76 247 -73 427 10 670 64 189
141 313 265 430 166 159 391 274 593 305 38 6 315 14 615 19 l545 8 68 26
c178 70 286 193 348 394 17 54 21 97 23 213 l1 145 -740 1 c-407 1 -767 -2
-801 -6z"/>
<path d="M4447 5323 c-14 -14 -7 -294 9 -357 43 -166 169 -312 335 -388 76
-35 148 -39 682 -41 l527 -2 0 391 0 392 -31 6 c-42 8 -1514 8 -1522 -1z"/>
<path d="M3195 4049 c-16 -4 -48 -12 -70 -18 -89 -22 -212 -103 -291 -191 -90
-101 -150 -278 -141 -415 11 -167 67 -285 188 -401 77 -73 164 -116 271 -134
284 -47 535 106 638 391 22 60 24 83 29 356 3 160 9 294 13 298 9 10 621 6
631 -4 4 -4 9 -136 10 -292 2 -302 3 -311 59 -438 60 -137 210 -265 373 -318
l80 -26 507 -1 508 -1 0 293 0 292 -229 0 c-247 0 -241 -1 -241 54 0 13 -9 54
-21 92 -70 235 -214 385 -436 453 -67 20 -83 21 -958 19 -490 -1 -903 -5 -920
-9z"/>
<path d="M4855 738 c-194 -56 -313 -171 -386 -373 -15 -40 -18 -81 -19 -207
l0 -158 775 0 775 0 0 380 0 380 -537 -1 c-511 0 -542 -1 -608 -21z"/>
</g>
</svg>
