<svg xmlns="http://www.w3.org/2000/svg" viewBox="0 0 340 80" fill="none" role="img" aria-label="The Syndicate logo (for light backgrounds)">
  <title>The Syndicate — horizontal logo lockup (light background variant)</title>
  <g transform="translate(12 12) scale(0.875)">
    <g stroke="#E3A92B" stroke-width="2.4" stroke-linecap="round" stroke-linejoin="round">
      <path d="M32 11 L50.19 21.5 L50.19 42.5 L32 53 L13.81 42.5 L13.81 21.5 Z"/>
      <path d="M32 32 L32 11 M32 32 L50.19 21.5 M32 32 L50.19 42.5 M32 32 L32 53 M32 32 L13.81 42.5 M32 32 L13.81 21.5"/>
    </g>
    <g fill="#E3A92B">
      <circle cx="32" cy="11" r="3.4"/>
      <circle cx="50.19" cy="21.5" r="3.4"/>
      <circle cx="50.19" cy="42.5" r="3.4"/>
      <circle cx="32" cy="53" r="3.4"/>
      <circle cx="13.81" cy="42.5" r="3.4"/>
      <circle cx="13.81" cy="21.5" r="3.4"/>
      <circle cx="32" cy="32" r="5.6"/>
    </g>
  </g>
  <text x="86" y="40" font-family="'Space Grotesk','DejaVu Sans',sans-serif" font-weight="600" font-size="27" letter-spacing="-0.5" fill="#16181C">The Syndicate</text>
  <text x="87" y="60" font-family="'Space Mono','DejaVu Sans Mono',monospace" font-weight="700" font-size="10" letter-spacing="5" fill="#B27D1A">PROTOCOL</text>
</svg>
