<svg xmlns="http://www.w3.org/2000/svg" viewBox="0 0 1200 630" fill="none">
  <defs>
    <radialGradient id="bgGlow" cx="50%" cy="30%" r="60%">
      <stop offset="0%" stop-color="#E3A92B" stop-opacity="0.16"/>
      <stop offset="55%" stop-color="#E3A92B" stop-opacity="0.03"/>
      <stop offset="100%" stop-color="#E3A92B" stop-opacity="0"/>
    </radialGradient>
  </defs>
  <rect width="1200" height="630" fill="#0A0B0D"/>
  <rect width="1200" height="630" fill="url(#bgGlow)"/>
  <g transform="translate(529.6 86) scale(2.2)">
    <g stroke="#E3A92B" stroke-width="2.4" stroke-linecap="round" stroke-linejoin="round">
      <path d="M32 11 L50.19 21.5 L50.19 42.5 L32 53 L13.81 42.5 L13.81 21.5 Z"/>
      <path d="M32 32 L32 11 M32 32 L50.19 21.5 M32 32 L50.19 42.5 M32 32 L32 53 M32 32 L13.81 42.5 M32 32 L13.81 21.5"/>
    </g>
    <g fill="#E3A92B">
      <circle cx="32" cy="11" r="3.4"/>
      <circle cx="50.19" cy="21.5" r="3.4"/>
      <circle cx="50.19" cy="42.5" r="3.4"/>
      <circle cx="32" cy="53" r="3.4"/>
      <circle cx="13.81" cy="42.5" r="3.4"/>
      <circle cx="13.81" cy="21.5" r="3.4"/>
      <circle cx="32" cy="32" r="5.6"/>
    </g>
  </g>
  <text x="600" y="370" text-anchor="middle" font-family="'Space Grotesk','DejaVu Sans',sans-serif" font-weight="600" font-size="80" letter-spacing="-1" fill="#F5F1E8">The Syndicate</text>
  <text x="600" y="416" text-anchor="middle" font-family="'Space Mono','DejaVu Sans Mono',monospace" font-weight="700" font-size="20" letter-spacing="8" fill="#E3A92B">EXPERIMENTAL UTILITY MEMBERSHIP PROTOCOL</text>
  <text x="600" y="486" text-anchor="middle" font-family="'Space Grotesk','DejaVu Sans',sans-serif" font-weight="400" font-size="30" fill="#A9ACB2">SYN is your seat. Every dollar routes. Every action is verified.</text>
  <line x1="120" y1="556" x2="1080" y2="556" stroke="#E3A92B" stroke-opacity="0.18" stroke-width="1"/>
  <text x="120" y="592" font-family="'Space Mono','DejaVu Sans Mono',monospace" font-weight="700" font-size="18" letter-spacing="3" fill="#E3A92B">AVALANCHE C-CHAIN</text>
  <text x="1080" y="592" text-anchor="end" font-family="'Space Mono','DejaVu Sans Mono',monospace" font-weight="700" font-size="18" letter-spacing="3" fill="#2BE8E8">DON'T TRUST · VERIFY</text>
</svg>
