<svg xmlns="http://www.w3.org/2000/svg" viewBox="0 0 96 96" fill="none" role="img" aria-label="SYN token coin mark">
  <title>SYN — The Syndicate token coin mark</title>
  <defs>
    <linearGradient id="coinGold" x1="0" y1="0" x2="0" y2="1">
      <stop offset="0" stop-color="#F4C95B"/>
      <stop offset="0.5" stop-color="#E3A92B"/>
      <stop offset="1" stop-color="#B27D1A"/>
    </linearGradient>
  </defs>
  <circle cx="48" cy="48" r="46" fill="#0A0B0D" stroke="url(#coinGold)" stroke-width="3"/>
  <circle cx="48" cy="48" r="41.5" fill="none" stroke="#E3A92B" stroke-opacity="0.25" stroke-width="0.8"/>
  <g transform="translate(24.96 16.96) scale(0.72)">
    <g stroke="#F4C95B" stroke-width="2.4" stroke-linecap="round" stroke-linejoin="round">
      <path d="M32 11 L50.19 21.5 L50.19 42.5 L32 53 L13.81 42.5 L13.81 21.5 Z"/>
      <path d="M32 32 L32 11 M32 32 L50.19 21.5 M32 32 L50.19 42.5 M32 32 L32 53 M32 32 L13.81 42.5 M32 32 L13.81 21.5"/>
    </g>
    <g fill="#F4C95B">
      <circle cx="32" cy="11" r="3.4"/>
      <circle cx="50.19" cy="21.5" r="3.4"/>
      <circle cx="50.19" cy="42.5" r="3.4"/>
      <circle cx="32" cy="53" r="3.4"/>
      <circle cx="13.81" cy="42.5" r="3.4"/>
      <circle cx="13.81" cy="21.5" r="3.4"/>
      <circle cx="32" cy="32" r="5.6"/>
    </g>
  </g>
  <text x="48" y="80" text-anchor="middle" font-family="'Space Mono','DejaVu Sans Mono',monospace" font-weight="700" font-size="13" letter-spacing="3" fill="url(#coinGold)">SYN</text>
</svg>
